HIERARCHY
ROOT Hips
{
	OFFSET 0.000000 0.000000 0.000000
	CHANNELS 6 Xposition Yposition Zposition Zrotation Yrotation Xrotation 
	JOINT LHipJoint
	{
		OFFSET 0.000000 0.000000 0.000000
		CHANNELS 3 Zrotation Yrotation Xrotation
		JOINT LeftUpLeg
		{
			OFFSET 1.363060 -1.794630 0.839290
			CHANNELS 3 Zrotation Yrotation Xrotation
			JOINT LeftLeg
			{
				OFFSET 2.448110 -6.726130 0.000000
				CHANNELS 3 Zrotation Yrotation Xrotation
				JOINT LeftFoot
				{
					OFFSET 2.562200 -7.039590 0.000000
					CHANNELS 3 Zrotation Yrotation Xrotation
					JOINT LeftToeBase
					{
						OFFSET 0.157640 -0.433110 2.322550
						CHANNELS 3 Zrotation Yrotation Xrotation
						End Site
						{
							OFFSET 0.000000 0.000000 0.000000
						}
					}
				}
			}
		}
	}
	JOINT RHipJoint
	{
		OFFSET 0.000000 0.000000 0.000000
		CHANNELS 3 Zrotation Yrotation Xrotation
		JOINT RightUpLeg
		{
			OFFSET -1.305520 -1.794630 0.839290
			CHANNELS 3 Zrotation Yrotation Xrotation
			JOINT RightLeg
			{
				OFFSET -2.542530 -6.985550 0.000000
				CHANNELS 3 Zrotation Yrotation Xrotation
				JOINT RightFoot
				{
					OFFSET -2.568260 -7.056230 0.000000
					CHANNELS 3 Zrotation Yrotation Xrotation
					JOINT RightToeBase
					{
						OFFSET -0.164730 -0.452590 2.363150
						CHANNELS 3 Zrotation Yrotation Xrotation
						End Site
						{
							OFFSET 0.000000 0.000000 0.000000
						}
					}
				}
			}
		}
	}
	JOINT LowerBack
	{
		OFFSET 0.000000 0.000000 0.000000
		CHANNELS 3 Zrotation Yrotation Xrotation
		JOINT Spine
		{
			OFFSET 0.028270 2.035590 -0.193380
			CHANNELS 3 Zrotation Yrotation Xrotation
			JOINT Spine1
			{
				OFFSET 0.056720 2.048850 -0.042750
				CHANNELS 3 Zrotation Yrotation Xrotation
				JOINT Neck
				{
					OFFSET 0.000000 0.000000 0.000000
					CHANNELS 3 Zrotation Yrotation Xrotation
					JOINT Neck1
					{
						OFFSET -0.054170 1.746240 0.172020
						CHANNELS 3 Zrotation Yrotation Xrotation
						JOINT Head
						{
							OFFSET 0.104070 1.761360 -0.123970
							CHANNELS 3 Zrotation Yrotation Xrotation
							End Site
							{
								OFFSET 0.000000 0.000000 0.000000
							}
						}
					}
				}
				JOINT LeftShoulder
				{
					OFFSET 0.000000 0.000000 0.000000
					CHANNELS 3 Zrotation Yrotation Xrotation
					JOINT LeftArm
					{
						OFFSET 3.362410 1.200890 -0.311210
						CHANNELS 3 Zrotation Yrotation Xrotation
						JOINT LeftForeArm
						{
							OFFSET 4.983000 -0.000000 -0.000000
							CHANNELS 3 Zrotation Yrotation Xrotation
							JOINT LeftHand
							{
								OFFSET 3.483560 -0.000000 -0.000000
								CHANNELS 3 Zrotation Yrotation Xrotation
								JOINT LeftFingerBase
								{
									OFFSET 0.000000 0.000000 0.000000
									CHANNELS 3 Zrotation Yrotation Xrotation
									JOINT LeftHandIndex1
									{
										OFFSET 0.715260 -0.000000 -0.000000
										CHANNELS 3 Zrotation Yrotation Xrotation
										End Site
										{
											OFFSET 0.000000 0.000000 0.000000
										}
									}
								}
								JOINT LThumb
								{
									OFFSET 0.000000 0.000000 0.000000
									CHANNELS 3 Zrotation Yrotation Xrotation
									End Site
									{
										OFFSET 0.000000 0.000000 0.000000
									}
								}
							}
						}
					}
				}
				JOINT RightShoulder
				{
					OFFSET 0.000000 0.000000 0.000000
					CHANNELS 3 Zrotation Yrotation Xrotation
					JOINT RightArm
					{
						OFFSET -3.136600 1.374050 -0.404650
						CHANNELS 3 Zrotation Yrotation Xrotation
						JOINT RightForeArm
						{
							OFFSET -5.241900 -0.000000 -0.000000
							CHANNELS 3 Zrotation Yrotation Xrotation
							JOINT RightHand
							{
								OFFSET -3.444170 -0.000000 -0.000000
								CHANNELS 3 Zrotation Yrotation Xrotation
								JOINT RightFingerBase
								{
									OFFSET 0.000000 0.000000 0.000000
									CHANNELS 3 Zrotation Yrotation Xrotation
									JOINT RightHandIndex1
									{
										OFFSET -0.622530 -0.000000 -0.000000
										CHANNELS 3 Zrotation Yrotation Xrotation
										End Site
										{
											OFFSET 0.000000 0.000000 0.000000
										}
									}
								}
								JOINT RThumb
								{
									OFFSET 0.000000 0.000000 0.000000
									CHANNELS 3 Zrotation Yrotation Xrotation
									End Site
									{
										OFFSET 0.000000 0.000000 0.000000
									}
								}
							}
						}
					}
				}
			}
		}
	}
}
MOTION
Frames: 4
Frame Time: 0.008333
4.817163 17.217231 0.752419 -2.546234 -77.153090 16.546294 -10.784159 1.675763 3.920105 -4.781234 2.693575 -19.609363 -2.380731 -1.516958 -2.023508 0.082979 1.051297 2.099875 0.483400 -0.000000 -41.443100 9.339410 -1.891656 0.860496 8.577548 -12.702447 -15.219174 2.688107 1.648264 -0.242120 -1.886795 -10.774506 -0.550188 -2.270699 -0.000000 -59.140700 1.134044 -0.624920 -5.864689 -0.664146 -0.876153 -4.600363 -7.434140 -0.759910 -4.078291 8.985088 0.213471 5.137810 -3.248439 -0.381097 3.516984 0.000000 0.000000 0.000000 9.324434 3.141030 -3.808611 -82.835944 -51.113062 25.502103 -179.684142 -70.028700 179.928818 4.478716 -2.221500 -0.122036 0.012040 0.984784 -0.000000 0.000000 0.000000 0.000000 0.000000 0.000000 0.000000 3.948913 2.004479 -3.980681 70.440382 38.930857 -5.541787 -177.652317 57.596125 179.824780 -8.902380 13.630583 -1.146443 -0.058558 -1.089065 -0.000000 0.000000 0.000000 0.000000 0.000000 0.000000 0.000000 
4.826722 17.218097 0.752585 -2.789624 -78.232123 16.871505 -10.812712 1.663041 3.773885 -4.987990 3.472251 -19.711344 -2.408053 -1.527681 -1.938697 0.115602 1.286854 1.949530 0.513900 0.000000 -41.231400 9.323211 -1.889904 0.966973 8.510784 -12.308766 -15.668540 2.734651 1.615612 0.047393 -1.756228 -10.054499 -0.495925 -2.153000 -0.000000 -59.423200 1.210690 -0.570156 -5.839461 -0.636679 -0.826255 -4.605323 -7.313051 -0.709471 -4.107356 8.680170 0.280648 5.031928 -3.243018 -0.379743 3.487824 0.000000 0.000000 0.000000 9.035052 3.134904 -3.655359 -81.975603 -51.143988 24.705548 -179.707266 -70.404633 179.928624 4.504780 -2.203973 -0.121910 0.012696 0.979408 -0.000000 0.000000 0.000000 0.000000 0.000000 0.000000 0.000000 3.983698 2.208890 -3.985784 70.191243 39.479148 -5.273510 -177.649030 59.264254 179.822107 -9.213627 13.379644 -1.164783 -0.059241 -1.068675 -0.000000 0.000000 0.000000 0.000000 0.000000 0.000000 0.000000 
4.835024 17.218769 0.752468 -3.061758 -79.287626 17.241221 -10.838852 1.651829 3.634681 -5.197128 4.236137 -19.837411 -2.437897 -1.538919 -1.852502 0.146449 1.508172 1.805706 0.541500 0.000000 -41.043000 9.306938 -1.889003 1.079291 8.449363 -11.908486 -16.142384 2.779673 1.582869 0.353036 -1.631559 -9.358152 -0.453686 -2.037900 0.000001 -59.690100 1.281945 -0.517192 -5.828032 -0.610567 -0.778235 -4.610755 -7.197862 -0.661132 -4.126610 8.381209 0.315282 4.901393 -3.238997 -0.378201 3.452101 0.000000 0.000000 0.000000 8.742172 3.137837 -3.501723 -81.119804 -51.139400 23.917371 -179.724037 -70.833696 179.928991 4.500851 -2.179872 -0.120678 0.013740 0.973407 -0.000000 0.000000 0.000000 0.000000 0.000000 0.000000 0.000000 4.018504 2.383857 -3.982714 69.991188 39.986860 -4.933497 -177.658310 60.989640 179.818535 -9.613176 13.145985 -1.194414 -0.057558 -1.049044 -0.000000 0.000000 0.000000 0.000000 0.000000 0.000000 0.000000 
4.841964 17.219189 0.751855 -3.354761 -80.317287 17.651661 -10.861850 1.642813 3.503727 -5.414329 4.989365 -19.999178 -2.472048 -1.550808 -1.758107 0.174056 1.703297 1.666553 0.564700 -0.000000 -40.872300 9.290851 -1.889177 1.201437 8.390890 -11.493525 -16.649488 2.822126 1.550019 0.683485 -1.514873 -8.693673 -0.432429 -1.925900 -0.000001 -59.928100 1.343476 -0.467422 -5.836699 -0.586489 -0.733261 -4.617878 -7.088022 -0.616239 -4.135484 8.095316 0.320621 4.748930 -3.237169 -0.376546 3.410578 0.000000 0.000000 0.000000 8.452221 3.143661 -3.346894 -80.265391 -51.089383 23.129428 -179.734766 -71.311508 179.929962 4.464667 -2.143552 -0.118038 0.015205 0.966625 -0.000000 0.000000 0.000000 0.000000 0.000000 0.000000 0.000000 4.065404 2.531758 -3.968908 69.830336 40.462562 -4.521307 -177.688709 62.776846 179.814948 -10.037435 12.915904 -1.225836 -0.054982 -1.029757 -0.000000 0.000000 0.000000 0.000000 0.000000 0.000000 0.000000 
